<?xml version="1.0" encoding="utf-8"?>
<!-- Generator: Adobe Illustrator 19.2.0, SVG Export Plug-In . SVG Version: 6.00 Build 0)  -->
<svg version="1.1" id="router" xmlns="http://www.w3.org/2000/svg" xmlns:xlink="http://www.w3.org/1999/xlink" x="0px" y="0px"
	 viewBox="0 0 224 146" enable-background="new 0 0 224 146" xml:space="preserve">
<g>
	<circle fill="none" cx="177" cy="111" r="7"/>
	<path fill="none" d="M204.0292,86H19.9708C13.3692,86,8,91.3828,8,98v28c0,6.6172,5.3692,12,11.9708,12h184.0584
		C210.6308,138,216,132.6172,216,126V98C216,91.3828,210.6308,86,204.0292,86z M32,120h-8v-20h8V120z M52,120h-8v-20h8V120z M72,120
		h-8v-20h8V120z M92,120h-8v-20h8V120z M112,120h-8v-20h8V120z M177,126c-8.2716,0-15-6.7284-15-15s6.7284-15,15-15s15,6.7284,15,15
		S185.2716,126,177,126z"/>
	<path d="M204.0292,78H19.9708C8.9588,78,0,86.9728,0,98v28c0,11.0272,8.9588,20,19.9708,20h184.0584
		C215.0412,146,224,137.0272,224,126V98C224,86.9728,215.0412,78,204.0292,78z M216,126c0,6.6172-5.3692,12-11.9708,12H19.9708
		C13.3692,138,8,132.6172,8,126V98c0-6.6172,5.3692-12,11.9708-12h184.0584C210.6308,86,216,91.3828,216,98V126z"/>
	<path d="M177,96c-8.2716,0-15,6.7284-15,15s6.7284,15,15,15s15-6.7284,15-15S185.2716,96,177,96z M177,118c-3.8592,0-7-3.1408-7-7
		s3.1408-7,7-7s7,3.1408,7,7S180.8592,118,177,118z"/>
	<rect x="24" y="100" width="8" height="20"/>
	<rect x="44" y="100" width="8" height="20"/>
	<rect x="64" y="100" width="8" height="20"/>
	<rect x="84" y="100" width="8" height="20"/>
	<rect x="104" y="100" width="8" height="20"/>
	<rect x="148" width="8" height="72"/>
	<rect x="68" width="8" height="72"/>
</g>
</svg>
